<?xml version="1.0" encoding="UTF-8" standalone="no"?>
<!DOCTYPE svg PUBLIC "-//W3C//DTD SVG 1.1//EN" "http://www.w3.org/Graphics/SVG/1.1/DTD/svg11.dtd">
<svg width="100%" height="100%" viewBox="0 0 1101 231" version="1.1" xmlns="http://www.w3.org/2000/svg" xmlns:xlink="http://www.w3.org/1999/xlink" xml:space="preserve" xmlns:serif="http://www.serif.com/" style="fill-rule:evenodd;clip-rule:evenodd;stroke-linejoin:round;stroke-miterlimit:2;">
    <g transform="matrix(1,0,0,1,-1786.356578,-2089.833181)">
        <g transform="matrix(1.169922,0,0,1.169922,1734,2046)">
            <path d="M384.388,193.835C401.287,199.276 419.23,191.361 426.929,181.86C427.63,180.995 434.429,174.778 436.446,159.493C437.424,152.086 436.583,134.342 420.676,122.255C417.493,119.837 409.92,116.088 404.556,115.193C401.325,114.654 387.775,111.641 371.766,120.932C367.948,123.148 360.074,130.742 356.859,136.699C355.236,139.707 340.434,168.802 334.165,180.32C328.006,191.636 318.886,213.439 291.278,226.009C288.567,227.243 277.834,231.617 266.512,231.945C250.514,232.409 243.641,231.874 227.559,224.385C222.207,221.892 213.75,215.665 207.814,209.214C207.055,208.39 200.909,201.271 200.296,199.579C199.223,196.611 200.292,195.353 204.173,188.322C208.143,181.131 213.894,171.852 218.304,163.396C218.522,162.979 220.717,158.77 221.469,158.444C225.265,156.801 222.066,161.619 227.45,173.523C228.693,176.271 233.376,183.303 237.83,187.106C243.529,191.974 252.422,194.751 254.571,195.094C267.456,197.155 274.759,192.84 277.53,191.559C284.255,188.451 290.526,181.591 292.084,179.217C299.799,167.456 299.203,167.126 306.886,152.704C309.105,148.539 308.898,148.445 311.242,144.357C313.074,141.162 316.507,134.024 318.983,129.778C322.338,124.022 328.613,109.856 341.46,98.454C346.49,93.989 348.986,92.251 349.682,91.766C351.593,90.436 358.493,86.596 361.445,85.375C367.045,83.06 377.865,77.79 401.483,78.853C428.933,80.088 444.634,94.246 450.083,98.954C450.363,99.196 452.028,100.952 453.186,101.971C454.702,103.305 456.06,102.362 456.215,100.467C456.233,100.242 456.02,52.49 456.373,50.478C457.123,46.208 459.846,47.22 471.502,46.932C472.11,46.917 489.539,46.909 490.491,46.926C491.048,46.936 495.244,47.013 495.757,51.474C496.01,53.679 495.748,76.75 496.209,78.584C496.887,81.281 498.077,80.657 513.499,80.738C530.804,80.828 532.953,80.362 534.358,81.657C536.725,83.84 535.831,85.321 536.064,94.504C536.085,95.341 536.08,112.014 536.024,112.463C535.407,117.438 529.692,116.649 529.501,116.651C499.932,116.923 499.667,116.245 497.609,117.654C495.377,119.182 496,119.901 495.872,140.504C495.792,153.45 495.614,163.762 497.523,171.494C500.015,181.583 505.933,192.856 523.488,196.556C525.286,196.935 533.42,198.65 546.45,197.077C547.298,196.975 551.103,195.801 551.285,197.547C551.502,199.622 546.109,203.019 546.094,213.498C546.079,223.33 552.232,228.381 552.268,230.507C552.286,231.579 551.549,232.437 547.445,233.136C539.869,234.426 530.945,234.21 529.508,234.175C507.492,233.642 494.478,226.392 487.413,221.628C480.498,216.966 472.732,208.272 468.821,200.296C468.716,200.081 467.597,197.799 467.38,197.672C467.24,197.591 465.836,196.773 465.554,198.519C465.376,199.624 465.728,199.621 465.689,212.501C465.648,226.32 466.189,228.221 463.472,229.447C461.744,230.228 460.941,229.708 436.504,229.88C430.887,229.92 431.319,228.329 430.174,225.665C429.493,224.08 427.809,224.726 427.607,224.803C426.398,225.267 415.713,232.213 397.5,232.265C391.207,232.283 379.074,232.687 363.493,225.515C351.759,220.115 343.275,210.822 341.812,209.219C338.276,205.346 335.731,201.768 335.069,200.779C332.482,196.911 334.918,194.626 336.158,192.312C340.375,184.443 347.23,172.804 350.165,167.321C350.551,166.599 352.959,161.445 354.448,161.941C356.802,162.724 354.801,164.59 361.371,175.579C369.068,188.453 379.078,192.009 384.388,193.835Z" style="fill:rgb(67,67,255);"/>
            <path d="M135.407,194.202C136.218,193.931 142.272,191.912 145.309,190.162C152.821,185.832 157.22,179.721 159.121,177.213C162.378,172.915 171.84,153.869 182.074,135.271C185.309,129.392 185.38,129.447 188.627,123.573C191.792,117.849 191.878,117.925 195.571,112.55C204.374,99.737 214.852,92.272 218.795,89.994C237.469,79.205 251.278,78.634 264.494,78.823C292.653,79.225 308.558,94.279 315.416,101.578C322.709,109.341 320.179,110.924 315.179,120.332C311.148,127.92 302.173,145.217 300.056,148.183C294.284,156.269 287.686,162.904 276.412,165.028C266.434,166.907 255.618,162.496 254.889,160.344C253.76,157.013 257.896,157.156 266.703,149.747C268.303,148.401 270.677,146.705 277.852,138.813C285.354,130.561 285.361,130.578 285.929,129.793C286.319,129.255 288.675,126 283.13,121.972C273.883,115.256 266.503,114.902 263.492,114.582C255.589,113.742 244.071,117.169 237.234,122.116C224.544,131.299 220.483,142.572 213.004,156.233C205.276,170.345 203.628,174.267 198.778,182.653C194.493,190.063 187.023,209.033 164.753,221.949C142.851,234.65 121.672,232.424 113.48,231.699C111.337,231.51 101.571,230.646 87.666,224.16C80.341,220.744 70.087,212.843 63.673,205.352C61.36,202.65 57.294,196.866 56.523,195.486C51.466,186.431 51.352,185.646 50.855,184.363C44.912,169.031 44.853,156.015 44.842,153.499C44.624,105.073 44.866,58.743 44.908,50.503C44.956,41.468 43.836,37.722 49.502,37.613C62.467,37.364 76.18,37.503 78.5,37.527C84.287,37.586 83.512,41.577 83.52,49.5C83.556,87.893 83.248,88.077 84.023,88.965C85.436,90.586 87.255,88.292 91.377,86.251C104.714,79.649 115.534,78.852 120.507,78.71C135.156,78.292 144.849,79.458 157.457,84.606C165.258,87.791 174.085,93.637 179.744,99.253C186.216,105.676 188.551,107.967 185.932,112.733C180.489,122.639 176.913,129.184 170.097,140.242C166.029,146.844 164.956,140.165 161.807,135.31C161.397,134.679 158.317,129.929 156.271,127.708C139.455,109.46 107.401,109.189 90.836,130.759C76.75,149.101 83.135,172.683 95.5,184.5C99.638,188.455 103.832,190.664 104.705,191.073C119.407,197.966 129.594,195.594 135.407,194.202Z" style="fill:rgb(67,67,255);"/>
            <path d="M582.506,193.489C581.91,193.164 578.651,191.389 574.451,190.812C569.061,190.072 566.551,191.333 565.84,190.258C565.257,189.376 566.189,188.623 566.96,187.888C580.428,175.045 590.33,146.795 596.712,131.585C604.611,112.758 606.509,111.214 609.44,106.46C611.645,102.885 619.507,94.617 622.437,92.42C634.278,83.544 647.662,78.278 668.513,79.207C691.671,80.238 705.506,93.25 706.72,94.226C711.795,98.306 713.156,92.02 725.37,86.224C741.975,78.343 755.072,79.157 761.505,79.317C778.193,79.731 790.986,87.52 793.252,88.899C816.595,103.111 820.85,124.978 821.491,127.502C823.137,133.98 823.76,141.066 823.772,141.491C823.946,147.409 824.297,159.407 824.166,215.499C824.143,225.135 824.633,229.086 819.494,229.371C818.433,229.43 797.958,229.323 794.502,229.288C791.963,229.262 787.006,229.946 786.202,225.558C785.95,224.183 786.133,195.661 786.071,193.506C785.887,187.096 786.07,177.919 785.943,165.494C785.789,150.353 787.722,136.387 776.563,125.435C774.967,123.869 765.484,114.562 749.363,119.008C733.235,123.455 729.01,140.313 728.592,148.505C728.392,152.42 728.412,152.42 728.398,197.5C728.389,224.375 728.786,226.456 727.186,228.214C725.6,229.958 725.169,229.291 702.5,229.378C693.416,229.413 690.549,230.147 690.564,222.5C690.573,218.02 690.66,174.518 690.622,166.5C690.536,148.197 691.03,142.533 688.509,136.496C686.206,130.979 685.42,128.766 681.217,124.802C668.929,113.216 652.066,118.389 646.181,123.097C635.918,131.308 634.524,138.893 626.895,171.591C620.193,200.32 613.241,209.028 608.542,215.534C605.394,219.892 597.628,226.479 593.236,229.062C591.526,230.067 586.252,232.888 585.451,233.224C585.295,233.29 583.374,234.097 583.472,232.5C583.519,231.745 583.682,231.814 584.297,231.366C587.549,228.995 587.75,229.153 589.992,225.814C590.697,224.763 594.846,218.584 593.791,210.455C592.251,198.581 583.667,194.219 582.506,193.489Z" style="fill:rgb(67,67,255);"/>
            <path d="M836.213,186.626C829.563,171.433 829.198,150.078 833.224,132.432C834.464,126.999 838.864,117.057 841.281,113.364C844.019,109.18 845.172,105.39 855.744,95.771C863.365,88.838 879.947,79.485 903.513,78.826C912.647,78.571 938.715,77.576 959.448,95.561C970.273,104.951 974.045,113.022 976.224,116.657C979.758,122.553 985.234,137.362 985.442,154.5C985.602,167.743 984.668,169.112 981.577,169.837C979.13,170.412 925.371,170.023 899.499,170.119C873.091,170.218 873.019,169.892 871.519,170.535C870.91,170.796 868.482,171.836 873.33,178.618C876.898,183.609 881.239,189.485 893.598,194.246C904.538,198.459 918.232,197.253 923.415,196.123C941.491,192.183 950.083,182.408 952.537,181.598C956.406,180.322 958.218,182.468 968.561,192.437C975.717,199.333 978.405,201.292 977.496,204.499C976.686,207.356 967.383,214.522 962.565,217.599C944.196,229.33 929.63,230.865 921.546,231.892C912.416,233.052 897.662,231.867 895.497,231.52C888.638,230.423 851.878,224.932 836.213,186.626ZM941.515,129.49C937.537,123.688 934.605,121.336 928.329,117.805C925.538,116.235 917.665,113.48 910.5,113.561C902.693,113.649 889.144,114.505 878.866,124.864C878.065,125.672 873.447,130.327 870.925,136.671C870.746,137.12 867.899,142.429 873.481,142.8C877.394,143.06 877.387,142.925 922.5,142.836C942.831,142.796 945.126,143.415 945.746,140.563C946.144,138.736 943.743,133.052 941.515,129.49Z" style="fill:rgb(67,67,255);"/>
            <path d="M582.552,224.552C581.52,225.438 575.075,232.972 563.503,228.492C553.495,224.618 546.857,208.297 561.345,199.229C569.431,194.169 587.589,196.431 586.845,214.515C586.605,220.326 583.951,223.038 582.552,224.552Z" style="fill:rgb(67,67,255);"/>
        </g>
    </g>
</svg>
